<?xml version="1.0" standalone="no"?>
<!DOCTYPE svg PUBLIC "-//W3C//DTD SVG 20010904//EN"
 "http://www.w3.org/TR/2001/REC-SVG-20010904/DTD/svg10.dtd">
<svg version="1.0" xmlns="http://www.w3.org/2000/svg"
 width="300.000000pt" height="300.000000pt" viewBox="0 0 300.000000 300.000000"
 preserveAspectRatio="xMidYMid meet">
<metadata>
Created by potrace 1.10, written by Peter Selinger 2001-2011
</metadata>
<g transform="translate(0.000000,300.000000) scale(0.100000,-0.100000)"
fill="#000000" stroke="none">
<path d="M1405 2406 c-9 -14 -25 -66 -35 -118 -40 -200 -49 -428 -26 -657 10
-109 15 -126 35 -142 13 -11 32 -19 43 -19 19 0 20 -4 14 -55 l-6 -55 45 0 45
0 0 513 c0 572 2 557 -65 557 -25 0 -39 -6 -50 -24z m69 -12 c14 -5 16 -59 16
-506 0 -395 -3 -499 -12 -496 -7 3 -15 24 -18 49 -4 38 -9 46 -37 58 -18 8
-35 21 -38 29 -15 39 -27 283 -21 432 7 186 38 394 63 422 18 20 23 21 47 12z"/>
<path d="M2185 2078 c-259 -241 -284 -268 -296 -308 -9 -30 -8 -43 4 -66 l15
-29 -161 -156 -161 -156 65 5 64 4 124 124 c84 84 128 121 135 114 15 -15 83
-12 114 4 15 8 59 49 98 93 39 43 126 136 193 207 85 91 118 133 111 140 -7 7
-60 -39 -175 -154 -131 -131 -167 -162 -177 -152 -10 10 21 46 152 177 131
131 162 167 152 177 -10 10 -46 -21 -177 -152 -130 -130 -167 -162 -177 -152
-13 13 -9 17 221 253 63 65 89 99 81 104 -8 5 -51 -30 -118 -96 -59 -57 -109
-106 -112 -109 -3 -3 -31 -29 -62 -59 -49 -46 -58 -52 -64 -37 -5 14 30 55
155 180 139 140 170 178 142 176 -3 -1 -69 -60 -146 -132z m-98 -308 c4 -1 18
-17 31 -37 22 -34 22 -36 5 -55 -40 -44 -102 -60 -145 -37 -18 10 -34 -2 -147
-115 -74 -73 -134 -126 -145 -126 -13 0 23 41 112 128 l131 127 -6 63 c-6 63
-6 63 32 102 l39 39 42 -44 c23 -25 46 -45 51 -45z"/>
<path d="M552 2155 c-19 -15 -36 -43 -42 -66 -33 -121 124 -388 262 -449 64
-28 149 -32 193 -8 l30 16 130 -135 130 -135 65 -8 c36 -4 66 -7 67 -6 1 1
-76 76 -170 167 l-173 166 14 34 c9 21 13 58 10 100 -3 57 -9 75 -41 123 -45
67 -127 134 -224 183 -58 28 -88 37 -146 41 -68 4 -75 3 -105 -23z m199 -31
c116 -45 243 -148 274 -222 18 -42 19 -120 3 -174 l-12 -39 145 -145 c79 -79
137 -144 129 -144 -8 0 -75 61 -148 136 -121 124 -135 136 -160 129 -15 -3
-57 -9 -93 -12 -57 -4 -72 -2 -116 20 -68 35 -145 122 -193 220 -33 67 -40 93
-41 144 -2 66 8 88 46 104 33 14 106 7 166 -17z"/>
<path d="M740 1415 c-8 -2 -32 -6 -53 -10 -34 -5 -36 -8 -26 -27 6 -11 15 -51
20 -88 15 -119 9 -115 162 -116 110 -1 155 -6 267 -32 307 -71 503 -67 845 14
45 11 116 17 202 18 153 1 147 -3 162 116 5 37 14 77 20 88 10 19 8 22 -26 29
-21 4 -105 8 -188 7 -120 0 -166 -4 -230 -21 -141 -38 -232 -46 -453 -40 -182
4 -220 8 -312 32 -82 21 -134 28 -240 30 -74 2 -142 2 -150 0z m234 -35 c49
-6 123 -19 164 -30 173 -45 546 -45 726 1 115 29 237 41 344 34 l92 -7 -6 -66
c-11 -111 -2 -104 -150 -107 -104 -2 -155 -8 -264 -34 -277 -64 -481 -64 -760
0 -107 25 -162 32 -264 34 -98 2 -130 6 -136 16 -4 8 -10 46 -13 86 l-6 72 47
4 c95 7 139 7 226 -3z"/>
<path d="M581 1239 c-92 -24 -185 -65 -176 -79 3 -6 25 -20 48 -31 23 -12 43
-22 44 -23 1 -1 -4 -20 -12 -41 -8 -22 -14 -50 -15 -62 0 -22 3 -21 82 17 45
22 119 52 164 66 69 22 83 30 87 50 4 22 1 24 -34 24 -44 0 -49 -10 -16 -33
17 -13 19 -16 5 -16 -24 -1 -67 55 -80 105 -7 24 -15 44 -18 43 -3 0 -38 -9
-79 -20z m87 -71 c12 -28 21 -52 19 -54 -4 -3 -170 -74 -174 -74 -2 0 0 18 3
40 6 37 4 41 -25 57 -17 10 -31 21 -31 25 0 8 105 41 181 57 3 0 15 -22 27
-51z"/>
<path d="M2322 1216 c-13 -49 -56 -106 -80 -106 -28 0 1 -16 53 -29 28 -7 92
-32 143 -56 88 -42 92 -43 92 -22 -1 12 -7 40 -15 62 -8 21 -13 40 -12 41 1 1
21 11 44 23 23 11 45 25 48 31 8 14 -82 55 -165 75 -36 9 -72 18 -80 21 -12 3
-19 -8 -28 -40z m151 -27 c37 -11 67 -23 67 -27 0 -4 -14 -15 -31 -25 -29 -16
-30 -20 -24 -57 4 -22 4 -40 0 -40 -4 0 -35 13 -68 29 -34 15 -73 31 -85 35
-13 4 -22 11 -20 14 2 4 11 28 22 54 21 54 14 53 139 17z"/>
<path d="M2194 1144 c3 -9 6 -22 6 -31 0 -12 6 -11 32 6 47 29 46 41 -2 41
-34 0 -41 -3 -36 -16z"/>
<path d="M1191 979 c-72 -69 -111 -113 -111 -127 0 -21 43 -62 66 -62 7 0 72
62 144 138 l131 137 -7 -205 c-4 -113 -8 -223 -8 -245 l-1 -40 65 0 65 0 -4
250 c-2 138 -4 251 -5 252 0 0 -51 3 -112 5 l-111 3 -112 -106z m163 59 c-4
-6 -50 -56 -102 -110 -70 -72 -101 -98 -116 -96 -12 2 -21 8 -21 15 0 6 41 54
90 106 77 81 95 95 123 96 23 1 31 -3 26 -11z m146 -218 l0 -220 -30 0 c-30 0
-30 0 -31 58 -1 99 1 184 7 285 6 94 7 97 30 97 l24 0 0 -220z"/>
<path d="M1612 1080 l-62 -5 121 -127 c66 -71 128 -128 138 -128 24 0 73 53
65 71 -4 8 -50 55 -103 104 l-96 90 -63 -5z m146 -111 c45 -44 82 -84 82 -89
0 -4 -7 -13 -16 -20 -13 -12 -26 -3 -90 61 -42 41 -84 86 -95 102 l-20 27 28
0 c21 0 47 -19 111 -81z"/>
</g>
</svg>
